<?xml version="1.0" encoding="UTF-8" standalone="no"?>
<svg
   xmlns:dc="http://purl.org/dc/elements/1.1/"
   xmlns:cc="http://creativecommons.org/ns#"
   xmlns:rdf="http://www.w3.org/1999/02/22-rdf-syntax-ns#"
   xmlns:svg="http://www.w3.org/2000/svg"
   xmlns="http://www.w3.org/2000/svg"
   version="1.1"
   id="Capa_1"
   x="0px"
   y="0px"
   width="125.656px"
   height="125.655px"
   viewBox="0 0 125.656 125.655"
   style="enable-background:new 0 0 125.656 125.655;"
   xml:space="preserve"><metadata
   id="metadata41"><rdf:RDF><cc:Work
       rdf:about=""><dc:format>image/svg+xml</dc:format><dc:type
         rdf:resource="http://purl.org/dc/dcmitype/StillImage" /><dc:title></dc:title></cc:Work></rdf:RDF></metadata><defs
   id="defs39" />

<g
   id="g6">
</g>
<g
   id="g8">
</g>
<g
   id="g10">
</g>
<g
   id="g12">
</g>
<g
   id="g14">
</g>
<g
   id="g16">
</g>
<g
   id="g18">
</g>
<g
   id="g20">
</g>
<g
   id="g22">
</g>
<g
   id="g24">
</g>
<g
   id="g26">
</g>
<g
   id="g28">
</g>
<g
   id="g30">
</g>
<g
   id="g32">
</g>
<g
   id="g34">
</g>
<g
   id="layer1" /><g
   id="layer2"><g
     id="g4"
     transform="matrix(0.84931746,0,0,0.85504752,9.4670817,9.1070013)">
	<path
   d="m 88.947,67.734 c 0,1.544 -1.252,2.802 -2.801,2.802 H 68.989 c -1.401,0 -2.583,-1.028 -2.763,-2.419 L 63.193,46.348 57.07,102.361 c -0.147,1.319 -1.216,2.375 -2.561,2.474 -0.079,0.005 -0.145,0.013 -0.229,0.013 -1.251,0 -2.354,-0.822 -2.685,-2.043 l -9.126,-32.46 -8.988,17.078 c -0.539,1.028 -1.667,1.653 -2.813,1.479 -1.159,-0.139 -2.101,-0.976 -2.388,-2.101 L 23.905,69.311 H 2.803 C 1.262,69.312 0,68.052 0,66.51 0,64.961 1.262,63.708 2.803,63.708 h 23.285 c 1.284,0 2.412,0.875 2.72,2.123 l 3.124,12.487 8.843,-16.789 c 0.528,-1.023 1.631,-1.638 2.764,-1.488 1.137,0.121 2.089,0.925 2.412,2.024 l 7.117,25.319 7.018,-64.09 c 0.149,-1.401 1.321,-2.465 2.743,-2.487 1.576,0.134 2.617,1.026 2.813,2.426 l 5.79,41.699 h 14.719 c 1.544,0.001 2.796,1.26 2.796,2.802 z m 14.824,-2.801 h -8.862 c -1.54,0 -2.802,1.26 -2.802,2.802 0,1.544 1.262,2.802 2.802,2.802 h 8.862 c 1.537,0 2.802,-1.258 2.802,-2.802 0,-1.543 -1.265,-2.802 -2.802,-2.802 z m 19.083,0 h -9.431 c -1.537,0 -2.802,1.26 -2.802,2.802 0,1.544 1.265,2.802 2.802,2.802 h 9.431 c 1.536,0 2.802,-1.258 2.802,-2.802 0,-1.543 -1.266,-2.802 -2.802,-2.802 z"
   id="path2"
   style="fill:#000000;fill-opacity:1" />
</g></g></svg>
